<?xml version="1.0" standalone="no"?>
<!DOCTYPE svg PUBLIC "-//W3C//DTD SVG 20010904//EN"
 "http://www.w3.org/TR/2001/REC-SVG-20010904/DTD/svg10.dtd">
<svg version="1.0" xmlns="http://www.w3.org/2000/svg"
 width="24.000000pt" height="24.000000pt" viewBox="0 0 800.000000 800.000000"
 preserveAspectRatio="xMidYMid meet">

<g transform="translate(0.000000,800.000000) scale(0.100000,-0.100000)"
fill="#000000" stroke="none">
<path d="M3775 7594 c-22 -2 -89 -9 -150 -14 -810 -79 -1587 -450 -2175 -1040
-392 -392 -674 -845 -854 -1369 -225 -653 -256 -1358 -91 -2037 245 -1004 933
-1872 1856 -2339 394 -200 760 -311 1224 -372 165 -21 627 -24 790 -5 552 66
1036 228 1480 495 575 345 1056 862 1355 1457 198 395 306 750 367 1215 24
182 24 648 0 830 -25 188 -54 342 -92 490 -331 1277 -1343 2278 -2620 2590
-287 70 -484 94 -805 99 -135 2 -263 2 -285 0z m391 -1015 c216 -66 404 -245
469 -447 38 -119 39 -96 -81 -1572 -63 -773 -119 -1427 -124 -1454 -33 -157
-148 -288 -293 -335 -130 -42 -231 -36 -342 19 -78 38 -123 76 -168 142 -76
110 -67 38 -193 1567 -81 985 -114 1424 -111 1491 8 165 75 300 218 434 90 85
203 146 314 170 89 20 218 14 311 -15z m-16 -4230 c111 -38 211 -131 259 -239
31 -73 44 -162 38 -268 -11 -195 -95 -330 -252 -404 -174 -81 -359 -52 -494
77 -100 96 -141 200 -141 362 0 166 39 274 136 370 119 119 291 157 454 102z"/>
</g>
</svg>
