<?xml version="1.0" standalone="no"?>
<!DOCTYPE svg PUBLIC "-//W3C//DTD SVG 20010904//EN"
 "http://www.w3.org/TR/2001/REC-SVG-20010904/DTD/svg10.dtd">
<svg version="1.0" xmlns="http://www.w3.org/2000/svg"
 width="24.000000pt" height="24.000000pt" viewBox="0 0 900.000000 558.000000"
 preserveAspectRatio="xMidYMid meet">

<g transform="translate(0.000000,558.000000) scale(0.100000,-0.100000)"
fill="#000000" stroke="none">
<path d="M4466 5320 c-88 -119 -199 -323 -246 -450 -7 -19 -19 -48 -26 -65
-15 -34 -73 -205 -85 -250 -4 -16 -15 -55 -24 -85 -30 -101 -65 -250 -91 -390
-9 -47 -23 -119 -30 -160 -17 -89 -38 -236 -58 -415 l-15 -129 53 -111 c52
-107 73 -152 123 -265 13 -30 28 -63 33 -72 6 -10 10 -23 10 -30 1 -7 9 -31
20 -53 11 -22 19 -47 20 -56 0 -8 4 -19 8 -25 11 -12 64 -158 92 -254 12 -41
33 -106 46 -145 13 -38 28 -90 34 -115 12 -46 28 -111 56 -222 33 -135 63
-280 85 -423 22 -145 25 -139 69 135 11 67 33 169 50 230 5 19 25 100 45 180
19 80 39 156 44 170 5 14 26 79 46 145 63 203 160 460 236 623 22 46 39 86 39
89 0 11 175 348 193 371 5 7 7 31 3 55 -4 23 -13 85 -21 137 -21 134 -41 233
-90 440 -62 258 -195 629 -284 790 -4 8 -25 47 -46 85 -46 85 -82 138 -156
230 -87 108 -81 106 -133 35z"/>
<path d="M2795 4478 c-16 -54 -71 -450 -84 -618 -36 -438 -37 -578 -11 -935
13 -172 57 -492 79 -575 6 -19 20 -80 32 -135 12 -55 28 -111 35 -125 7 -14
43 -52 81 -85 186 -162 574 -550 748 -750 39 -44 90 -102 115 -130 114 -125
340 -404 512 -632 l93 -123 3 138 c3 157 -12 451 -33 627 -30 259 -35 302 -45
350 -5 28 -19 102 -30 165 -41 236 -102 486 -172 710 -17 52 -37 118 -45 145
-8 28 -19 59 -24 70 -9 20 -52 135 -71 190 -5 17 -16 44 -24 62 -8 17 -14 33
-14 36 0 3 -18 44 -40 91 -22 47 -49 109 -62 138 -19 46 -94 196 -146 293 -90
167 -284 465 -381 585 -20 25 -43 54 -51 64 -60 76 -147 174 -220 247 -83 85
-223 209 -235 209 -3 0 -7 -6 -10 -12z"/>
<path d="M6095 4421 c-155 -132 -362 -363 -489 -545 -16 -22 -49 -70 -74 -106
-110 -157 -343 -576 -407 -730 -9 -23 -66 -155 -101 -237 -8 -17 -14 -37 -14
-45 0 -8 -4 -18 -8 -24 -14 -15 -86 -218 -122 -344 -12 -41 -26 -87 -32 -102
-10 -26 -16 -48 -44 -163 -8 -33 -22 -86 -30 -117 -30 -120 -44 -186 -60 -273
-9 -49 -22 -124 -30 -165 -7 -41 -20 -127 -28 -190 -9 -63 -17 -128 -20 -145
-3 -16 -13 -100 -21 -185 -16 -151 -35 -680 -25 -680 3 0 18 19 35 43 128 181
453 580 690 847 161 181 569 590 722 723 103 91 116 108 132 187 6 25 17 77
25 115 8 39 17 77 20 85 3 8 10 44 15 80 6 36 15 92 20 125 33 193 56 499 56
755 0 308 -28 645 -80 970 -8 52 -17 111 -21 130 -7 47 -12 60 -21 59 -4 0
-44 -31 -88 -68z"/>
<path d="M1231 4294 c0 -85 33 -318 63 -459 8 -38 20 -92 25 -120 6 -27 17
-74 26 -103 8 -28 22 -78 31 -110 21 -74 72 -231 83 -257 5 -11 17 -42 26 -70
10 -27 35 -93 57 -145 42 -105 27 -91 198 -182 239 -129 372 -212 629 -397 80
-57 166 -121 191 -142 55 -46 64 -48 56 -11 -13 56 -36 191 -51 292 -8 58 -17
114 -19 125 -2 12 -7 72 -11 135 -4 63 -9 126 -11 140 -3 14 -7 113 -11 220
-3 107 -8 200 -12 207 -21 40 -341 348 -481 464 -151 124 -412 309 -437 309
-3 0 -30 15 -61 33 -61 35 -166 80 -222 95 -19 6 -43 13 -52 17 -16 6 -18 1
-17 -41z"/>
<path d="M7690 4323 c-54 -17 -64 -21 -161 -67 -257 -120 -560 -350 -871 -660
l-178 -177 0 -122 c0 -276 -45 -696 -106 -994 -3 -18 -3 -33 1 -33 4 0 30 20
58 44 68 57 330 245 429 307 43 27 113 71 156 97 42 27 113 68 157 92 192 103
227 124 239 144 11 18 29 61 86 211 33 84 83 233 101 295 11 41 27 98 36 125
26 89 70 294 89 420 36 236 42 336 22 334 -7 -1 -33 -8 -58 -16z"/>
<path d="M328 2937 c61 -116 168 -327 239 -467 72 -140 145 -282 163 -315 17
-33 44 -82 58 -110 14 -27 57 -104 96 -170 461 -795 933 -1170 1791 -1424 94
-27 247 -67 315 -80 30 -6 89 -18 130 -26 231 -48 628 -103 935 -130 149 -13
255 -20 255 -17 0 5 -274 364 -344 452 -368 456 -772 889 -1111 1189 -77 68
-156 138 -175 155 -214 191 -692 527 -925 651 -49 26 -115 62 -145 79 -60 35
-134 70 -220 106 -30 13 -60 27 -66 32 -17 12 -342 132 -414 152 -36 10 -76
22 -90 27 -92 30 -416 93 -538 103 l-63 6 109 -213z"/>
<path d="M8665 3143 c-22 -1 -62 -7 -90 -13 -27 -5 -102 -19 -165 -31 -63 -11
-128 -24 -145 -29 -16 -5 -55 -16 -85 -24 -155 -42 -389 -124 -515 -181 -105
-48 -317 -153 -390 -193 -796 -443 -1592 -1172 -2371 -2172 -66 -85 -144 -188
-173 -229 l-53 -74 88 6 c49 4 98 9 109 11 11 2 72 7 135 11 63 4 117 8 120
10 6 3 53 10 180 24 47 6 94 12 105 14 11 3 52 8 90 12 39 3 89 11 112 16 24
5 71 14 105 19 58 9 168 30 228 44 14 3 45 10 70 15 189 41 383 96 545 157 55
20 118 43 140 51 69 25 306 143 395 196 86 51 266 181 350 252 155 132 353
366 513 610 159 242 248 408 752 1403 l52 102 -31 -2 c-17 -1 -49 -3 -71 -5z"/>
</g>
</svg>
